#!OML:ASF F:\VICON\USERDATA\INSTALL\rory3\rory3.ASF
:FULLY-SPECIFIED
:DEGREES
19
root -0.6419760317479691 17.68320093248506 -13.63869065038759 -1.443402326311638 6.873764402984101 -3.8860754810843834
lfemur -23.751495920870408 -3.5018230004608584 -21.614798867659587
ltibia 40.959604633339474
lfoot -11.770491996728364 -10.71139388743888
ltoes -1.5494390239154843
rfemur -7.6380753301989905 -2.109073517608749 27.04960375529271
rtibia 96.09898865247399
rfoot 21.073189087599005 -13.16358962457693
rtoes 16.75529106259753
lowerback 16.497294635484977 1.0708685913804965 2.7687665359482985
upperback -0.08104018777185096 2.0672180383900507 1.1520152444739202
thorax -9.314926447008249 0.8915203793086182 -0.8248265632379427
lowerneck -18.957109094300737 -5.346237068944437 -1.6914257463877636
upperneck 15.2428908125415 -7.620285747627456 4.051617609656949
head 8.059281610746092 -3.300166925302631 0.6760169325131471
lclavicle -1.7288339579140553e-15 1.783627740629379e-15
lhumerus -61.08469310126232 -12.545202548319788 100.14099148708108
lradius 104.07300444904128
lwrist 33.45060031305122
lhand -25.856195481089546 0.7974909758354536
lfingers 7.12502
lthumb 0.684611519400963 30.77610395177544
rclavicle -1.7288339579140553e-15 1.783627740629379e-15
rhumerus -48.45430221697046 14.403489815674888 -101.75298744529049
rradius 104.67300786406638
rwrist -7.877918230301855
rhand -19.721584468400557 40.739094005457744
rfingers 7.12502
rthumb 6.608565532168662 10.86219468936517
20
root -0.6466339103870664 17.47490431414389 -12.685891039268492 -1.142003884183656 6.63226503288362 -2.5196102223006083
lfemur -22.37229655418441 -3.797762318587235 -23.29889628152626
ltibia 45.081003001255546
lfoot -17.15248826865023 -7.689818902664648
ltoes 2.0965073225176187
rfemur -13.30770288516755 -3.7861098897905276 23.90240920158558
rtibia 102.40698647708163
rfoot 20.9978891398462 -9.95280439973143
rtoes 15.041692191438207
lowerback 16.84359273138025 1.0303288417645033 0.9001372992779871
upperback 0.15045853836227496 1.6215396971318086 0.8064198388995274
thorax -9.309296525011272 0.7562996184504949 -0.03689989538283012
lowerneck -19.70270474383185 -5.254087752484087 -1.3674711134684912
upperneck 15.087891778435758 -7.553946082323309 3.969378362841346
head 8.117170200135464 -3.248607496699133 0.5904370412084002
lclavicle -1.7288340642170575e-15 1.7836277577894746e-15
lhumerus -56.90879589786926 -14.232599849969652 100.17699136519632
lradius 104.53000395767764
lwrist 34.90129571553891
lhand -24.961000402569145 0.056295737182686656
lfingers 7.12502
lthumb 1.5492695971520145 30.030406436413436
rclavicle -1.7288340642170575e-15 1.7836277577894746e-15
rhumerus -49.23730147087694 13.324791676259078 -101.86498716016362
rradius 101.65501299726837
rwrist -6.520573173385253
rhand -22.246571700123983 37.443715014804695
rfingers 7.12502
rthumb 4.170698307340958 7.504846518230566
21
root -0.5340962609761271 17.243418993155707 -3.0375569324827065 0.5219268206554477 4.602169589256363 -0.22773885353930634
lfemur -19.651110032520812 0.6714446607684867 -25.896346913072442
ltibia 53.319409769219064
lfoot -17.212097148447146 -1.6529831379634352
ltoes 2.169593581812064
rfemur -18.833580187270375 -4.6997109147857685 22.01998299420212
rtibia 115.20802517478336
rfoot 16.537617970327936 -7.720127106110682
rtoes 23.03367170473805
lowerback 17.33227025655594 1.6640772626605291 -1.6011228371580046
upperback -0.08090667121062545 1.9338961752270838 -0.0063280483833354495
thorax -10.112408644442759 0.9875014513348415 1.0614990817511634
lowerneck -20.409861879950707 -4.835582474620248 -1.5475898578250122
upperneck 14.169700851588548 -6.818337767885074 3.8162116389417635
head 7.885213901285788 -2.970355262044446 0.8382168911081181
lclavicle -9.18457027673097e-16 2.371420820137137e-15
lhumerus -52.13930867852322 -17.89166432663138 100.76150835047684
lradius 106.33371032474969
lwrist 32.345472954382004
lhand -25.260489826245408 5.054971439619933
lfingers 7.12502
lthumb 1.259972889114992 35.01916132397385
rclavicle -9.18457027673097e-16 2.371420820137137e-15
rhumerus -48.52829402912972 7.666351910119925 -100.24828176665439
rradius 100.66753207887838
rwrist -6.888928666186307
rhand -18.54346519666878 38.798065696382615
rfingers 7.12502
rthumb 7.745437051623285 8.587258031393217
22
root -0.48391256666375426 17.098363765433987 -6.47232563213632 1.0988636604879982 4.163510900048255 0.504948104631727
lfemur -17.902169519700088 0.6453934874259437 -26.983810491123904
ltibia 52.83474234884199
lfoot -22.892442588006606 1.2359048088123883
ltoes -0.43360721798103263
rfemur -27.26343969093992 -5.59216447358979 20.397577087543453
rtibia 117.85266768873245
rfoot 12.866376158146153 -7.508013530258303
rtoes 20.135844874820684
lowerback 17.616250616148648 1.5379153154746916 -3.0065631556902845
upperback -0.04608630385451029 1.5155854637053185 -0.32485968294660017
thorax -10.315887206414523 0.8470270162800485 1.5306494984864698
lowerneck -20.897959025612423 -4.677639267465098 -1.5702924177788165
upperneck 13.489481540423046 -6.628316436816323 4.019693628006965
head 7.756546132123986 -2.848290507649176 0.9247125320713991
lclavicle -2.1880777539461815e-15 1.450523197563271e-15
lhumerus -47.39481599358352 -20.723434800059024 100.9271296977581
lradius 106.26018747349549
lwrist 31.691213201539917
lhand -24.926054953739698 4.2632383314665665
lfingers 7.12502
lthumb 1.5829717128417211 34.22559224703742
rclavicle -2.1880777539461815e-15 1.450523197563271e-15
rhumerus -50.34195083693565 5.798397517033463 -100.39129277209173
rradius 99.2029955958547
rwrist -7.77148350946281
rhand -17.954689177373563 38.55270425728865
rfingers 7.12502
rthumb 8.313540190695859 8.59694118415012
